<svg width="428" height="387" viewBox="0 0 428 387" fill="none" xmlns="http://www.w3.org/2000/svg">
<path d="M262.163 104.93C275.95 152.11 268.424 181.346 233.596 191.523C198.768 201.7 165.224 190.326 151.438 143.146C137.651 95.9652 148.843 30.8447 183.671 20.6676C218.5 10.4906 248.377 57.7493 262.163 104.93Z" fill="#FF8600"/>
<path d="M258.324 106.052C265.14 129.377 266.452 147.558 262.291 160.913C258.243 173.903 248.828 182.905 232.474 187.683C215.746 192.572 199.767 192.161 186.461 185.289C173.206 178.444 161.946 164.846 155.277 142.024C148.579 119.101 147.945 91.7226 153.221 68.9324C158.56 45.8677 169.544 28.9628 184.793 24.5071C199.895 20.0942 214.553 27.8524 227.721 43.8333C240.81 59.7188 251.524 82.7794 258.324 106.052Z" stroke="url(#paint0_radial_162_759)" stroke-opacity="0.15" stroke-width="8"/>
<path d="M284.978 102.417C289.711 151.342 276.859 178.658 240.743 182.152C204.626 185.646 173.797 168.208 169.064 119.283C164.331 70.3579 187.487 8.47298 223.603 4.97908C259.719 1.48518 280.245 53.492 284.978 102.417Z" fill="#FF8600"/>
<path d="M280.997 102.802C283.337 126.99 281.231 145.097 274.649 157.439C268.247 169.445 257.316 176.53 240.357 178.171C223.011 179.849 207.39 176.461 195.601 167.226C183.857 158.025 175.335 142.564 173.045 118.898C170.746 95.1271 175.236 68.1124 184.675 46.7083C194.227 25.0463 208.175 10.4902 223.988 8.9605C239.648 7.4455 252.6 17.8046 262.552 35.9634C272.444 54.0138 278.662 78.6694 280.997 102.802Z" stroke="url(#paint1_radial_162_759)" stroke-opacity="0.15" stroke-width="8" stroke-linejoin="round"/>
<path d="M279.645 104.715C284.253 152.349 271.739 178.945 236.576 182.347C201.413 185.748 171.396 168.77 166.788 121.136C162.18 73.5017 184.725 13.2493 219.888 9.84757C255.052 6.44584 275.037 57.0807 279.645 104.715Z" fill="#FF8600"/>
<path d="M265.794 101.978C279.191 147.827 271.878 176.238 238.033 186.127C204.187 196.017 171.59 184.964 158.193 139.115C144.796 93.2663 155.671 29.9834 189.517 20.0936C223.362 10.2038 252.397 56.1288 265.794 101.978Z" fill="#FF8600"/>
<path d="M261.955 103.1C268.576 125.759 269.844 143.402 265.811 156.347C261.89 168.929 252.773 177.653 236.911 182.288C220.674 187.032 205.178 186.63 192.28 179.969C179.432 173.334 168.507 160.15 162.032 137.993C155.529 115.736 154.913 89.1503 160.036 67.0218C165.222 44.6188 175.882 28.2452 190.639 23.933C205.249 19.6638 219.451 27.1604 232.237 42.6773C244.943 58.0989 255.349 80.4932 261.955 103.1Z" stroke="url(#paint2_linear_162_759)" stroke-opacity="0.15" stroke-width="8"/>
<path d="M250.5 93.4666C250.5 99.7876 248.58 105.452 245.547 109.503C242.514 113.553 238.44 115.917 234.066 115.917C229.693 115.917 225.619 113.553 222.586 109.503C219.553 105.452 217.633 99.7876 217.633 93.4666C217.633 87.1455 219.553 81.4808 222.586 77.4303C225.619 73.3802 229.693 71.0164 234.066 71.0164C238.44 71.0164 242.514 73.3802 245.547 77.4303C248.58 81.4808 250.5 87.1455 250.5 93.4666Z" fill="#1E1E1E" stroke="white" stroke-width="3"/>
<ellipse cx="4.45275" cy="5.94662" rx="4.45275" ry="5.94662" transform="matrix(0.973893 0.227008 -0.227007 0.973893 242.941 78.7567)" fill="white"/>
<path d="M204.367 90.9502C204.367 97.2713 202.447 102.936 199.414 106.987C196.381 111.037 192.307 113.4 187.934 113.4C183.56 113.4 179.486 111.037 176.453 106.987C173.42 102.936 171.5 97.2713 171.5 90.9502C171.5 84.6292 173.42 78.9644 176.453 74.9139C179.486 70.8638 183.56 68.5 187.934 68.5C192.307 68.5 196.381 70.8638 199.414 74.9139C202.447 78.9644 204.367 84.6292 204.367 90.9502Z" fill="#1E1E1E" stroke="white" stroke-width="3"/>
<ellipse cx="4.45275" cy="5.94662" rx="4.45275" ry="5.94662" transform="matrix(0.973893 0.227008 -0.227007 0.973893 196.809 76.2401)" fill="white"/>
<path d="M232.179 124C223.027 130.173 202.913 133.312 194 134.11C204.554 142.447 226.246 157.736 228.587 152.202C230.929 146.668 231.957 131.095 232.179 124Z" fill="#1E1E1E"/>
<mask id="mask0_162_759" style="mask-type:alpha" maskUnits="userSpaceOnUse" x="215" y="134" width="22" height="23">
<path d="M231.619 134.705C221.477 132.422 216.636 143.23 215.484 148.92L229.918 156.713C234.71 150.328 241.761 136.988 231.619 134.705Z" fill="#D94737"/>
</mask>
<g mask="url(#mask0_162_759)">
<path d="M232.179 124C223.027 130.173 202.913 133.312 194 134.11C204.554 142.447 226.246 157.736 228.587 152.202C230.929 146.668 231.957 131.095 232.179 124Z" fill="#D94737"/>
</g>
<path d="M0 183.89C0 168.426 12.536 155.89 28 155.89H400C415.464 155.89 428 168.426 428 183.89V386.96H0V183.89Z" fill="white"/>
<path d="M178.92 159.716L164.314 148.509C162.193 146.882 159.594 146 156.92 146C154.024 146 151.216 147.027 149.053 148.953C145.066 152.503 140.235 157.035 139.462 158.618C137.425 163.515 142.613 164.376 145.462 164.194C145.219 166.041 145.216 170.384 147.14 172.973C151.875 180.773 156.229 175.584 157.814 172.015C157.905 172.117 158.616 172.615 160.732 173.782C168.387 178.61 169.564 173.097 169.196 169.737C168.937 168.287 168.86 165.516 170.625 166.031C181.142 169.267 180.537 163.169 178.92 159.716Z" fill="#1E1E1E"/>
<path d="M256.859 160.418L271.466 149.211C273.587 147.584 276.186 146.702 278.859 146.702C281.756 146.702 284.563 147.728 286.726 149.654C290.713 153.205 295.544 157.736 296.317 159.32C298.354 164.217 293.166 165.077 290.317 164.895C290.56 166.743 290.564 171.086 288.639 173.674C283.904 181.474 279.551 176.286 277.966 172.716C277.874 172.819 277.163 173.316 275.048 174.483C267.392 179.312 266.215 173.799 266.583 170.439C266.842 168.989 266.919 166.218 265.154 166.732C254.638 169.968 255.242 163.871 256.859 160.418Z" fill="#1E1E1E"/>
<defs>
<radialGradient id="paint0_radial_162_759" cx="0" cy="0" r="1" gradientUnits="userSpaceOnUse" gradientTransform="translate(202.114 108) rotate(73.7114) scale(89 89)">
<stop stop-color="#623400" stop-opacity="0.6"/>
<stop offset="1" stop-color="#FF8600"/>
</radialGradient>
<radialGradient id="paint1_radial_162_759" cx="0" cy="0" r="1" gradientUnits="userSpaceOnUse" gradientTransform="translate(225.412 94.2195) rotate(84.4744) scale(89 58.5)">
<stop stop-color="#FF8600"/>
<stop offset="1" stop-color="#623400" stop-opacity="0.3"/>
</radialGradient>
<linearGradient id="paint2_linear_162_759" x1="159" y1="135.5" x2="253" y2="74" gradientUnits="userSpaceOnUse">
<stop stop-color="#FF8600"/>
<stop offset="1" stop-color="#623400" stop-opacity="0.3"/>
</linearGradient>
</defs>
</svg>
