<svg width="30" height="31" viewBox="0 0 30 31" fill="none" xmlns="http://www.w3.org/2000/svg">
<path d="M25.0498 9.02498L17.8498 3.98748C15.8873 2.61248 12.8748 2.68748 10.9873 4.14998L4.7248 9.03748C3.4748 10.0125 2.4873 12.0125 2.4873 13.5875V22.2125C2.4873 25.4 5.0748 28 8.2623 28H21.7373C24.9248 28 27.5123 25.4125 27.5123 22.225V13.75C27.5123 12.0625 26.4248 9.98748 25.0498 9.02498ZM15.9373 23C15.9373 23.5125 15.5123 23.9375 14.9998 23.9375C14.4873 23.9375 14.0623 23.5125 14.0623 23V19.25C14.0623 18.7375 14.4873 18.3125 14.9998 18.3125C15.5123 18.3125 15.9373 18.7375 15.9373 19.25V23Z" fill="#D9D9D9"/>
</svg>
