<svg width="26" height="27" viewBox="0 0 26 27" fill="none" xmlns="http://www.w3.org/2000/svg">
<path d="M9.91773 22.2166L9.84389 21.6229L9.28592 21.4073C9.05981 21.3199 8.84989 21.2162 8.65492 21.097C8.43061 20.9597 8.21083 20.8125 7.99556 20.6552L7.53827 20.3209L7.01646 20.5413L3.9825 21.8224L1.30558 17.1755L3.93647 15.1733L4.40349 14.8178L4.32089 14.2368C4.30539 14.1277 4.29851 14.0286 4.29851 13.9388V13.0613C4.29851 12.9714 4.30539 12.8723 4.32089 12.7632L4.40349 12.1822L3.93647 11.8267L1.30558 9.82447L3.9825 5.17759L7.01646 6.45873L7.53827 6.67908L7.99556 6.34484C8.20498 6.19177 8.42472 6.04769 8.655 5.91268C8.87788 5.78202 9.09675 5.67237 9.31163 5.58239L9.8462 5.35854L9.91773 4.78343L10.3261 1.5H15.6739L16.0823 4.78343L16.1561 5.37706L16.7141 5.59274C16.9402 5.68014 17.1501 5.78378 17.3451 5.90305C17.5694 6.04026 17.7892 6.1875 18.0044 6.34484L18.4617 6.67908L18.9835 6.45873L22.0175 5.17759L24.6944 9.82447L22.0635 11.8267L21.5965 12.1822L21.6791 12.7632C21.6946 12.8723 21.7015 12.9714 21.7015 13.0613V13.9388C21.7015 13.9768 21.6957 14.0308 21.6749 14.104L21.4884 14.7602L22.0312 15.1733L24.6621 17.1755L21.9865 21.8201L18.9863 20.5425L18.4634 20.3197L18.0044 20.6552C17.795 20.8082 17.5753 20.9523 17.345 21.0873C17.1221 21.218 16.9032 21.3276 16.6884 21.4176L16.1538 21.6415L16.0823 22.2166L15.6739 25.5H10.3261L9.91773 22.2166ZM13.0647 19.05C14.5818 19.05 15.9039 18.4993 16.975 17.4228C18.046 16.3465 18.592 15.0202 18.592 13.5C18.592 11.9798 18.046 10.6535 16.975 9.57716C15.9039 8.50068 14.5818 7.95 13.0647 7.95C11.5309 7.95 10.1994 8.4974 9.13383 9.58152C8.07506 10.6587 7.53731 11.9837 7.53731 13.5C7.53731 15.0163 8.07506 16.3413 9.13383 17.4185C10.1994 18.5026 11.5309 19.05 13.0647 19.05Z" stroke="#C0C0C0" stroke-width="2"/>
</svg>
